<?xml version="1.0" encoding="UTF-8" standalone="no"?>
<!-- Created with Inkscape (http://www.inkscape.org/) -->

<svg
  version="1.1"
  id="svg92"
  width="104.39201"
  height="80.274261"
  viewBox="0 0 104.392 80.274263"
  xmlns="http://www.w3.org/2000/svg"
  xmlns:svg="http://www.w3.org/2000/svg">
  <defs
    id="defs96">
    <clipPath
      clipPathUnits="userSpaceOnUse"
      id="clipPath108">
      <path
        d="M 0,179.612 H 201.047 V 0 H 0 Z"
        id="path106" />
    </clipPath>
  </defs>
  <g
    id="g100"
    transform="matrix(1.3333333,0,0,-1.3333333,-80.145196,179.96493)">
    <g
      id="g102">
      <g
        id="g104"
        clip-path="url(#clipPath108)">
        <g
          id="g110"
          transform="translate(138.3379,83.513)">
          <path
            d="m 0,0 c -0.07,0.332 -0.2,0.639 -0.389,0.923 -0.188,0.283 -0.427,0.508 -0.725,0.685 -0.36,0.202 -0.66,0.42 -0.903,0.649 -0.193,0.18 -0.287,0.438 -0.287,0.774 0,0.087 0.008,0.182 0.018,0.278 l -2.664,-4.747 -0.493,0.874 c -0.374,-0.648 -0.664,-1.148 -0.867,-1.502 -0.203,-0.355 -0.354,-0.615 -0.457,-0.78 -0.101,-0.166 -0.161,-0.266 -0.177,-0.295 -0.016,-0.033 -0.024,-0.057 -0.024,-0.07 h 3.025 l 1.869,3.353 c 0.138,-0.094 0.24,-0.207 0.302,-0.331 0.063,-0.113 0.102,-0.236 0.118,-0.378 0,-0.016 0.003,-0.039 0.003,-0.055 0,-0.126 -0.048,-0.278 -0.144,-0.442 C -2.262,-1.901 -2.661,-2.605 -2.99,-3.18 -3.319,-3.755 -3.591,-4.228 -3.81,-4.598 -4.029,-4.969 -4.196,-5.252 -4.313,-5.449 -4.43,-5.646 -4.514,-5.791 -4.561,-5.885 -4.608,-5.98 -4.634,-6.04 -4.642,-6.064 -4.65,-6.087 -4.655,-6.098 -4.655,-6.098 c 0.251,-0.079 0.53,-0.186 0.833,-0.32 0.305,-0.135 0.561,-0.318 0.761,-0.555 h -27.971 -15.449 -28.622 c 0.2,0.237 0.456,0.42 0.761,0.555 0.303,0.134 0.582,0.241 0.833,0.32 0,0 -0.005,0.011 -0.013,0.034 -0.008,0.024 -0.034,0.084 -0.081,0.179 -0.047,0.094 -0.131,0.239 -0.248,0.436 -0.117,0.197 -0.284,0.48 -0.503,0.851 -0.219,0.37 -0.491,0.843 -0.82,1.418 -0.329,0.575 -0.728,1.279 -1.195,2.116 -0.096,0.164 -0.144,0.316 -0.144,0.442 0,0.016 0.003,0.039 0.003,0.055 0.016,0.142 0.055,0.265 0.118,0.378 0.062,0.124 0.164,0.237 0.302,0.331 l 1.947,-3.353 h 3.025 c 0,0.013 -0.008,0.037 -0.024,0.07 -0.016,0.029 -0.076,0.129 -0.177,0.295 -0.102,0.165 -0.253,0.425 -0.457,0.78 -0.203,0.354 -0.493,0.854 -0.867,1.502 l -0.493,-0.874 -2.742,4.747 c 0.01,-0.096 0.018,-0.191 0.018,-0.278 0,-0.336 -0.094,-0.594 -0.287,-0.774 C -76.39,2.028 -76.69,1.81 -77.05,1.608 -77.348,1.431 -77.587,1.206 -77.775,0.923 -77.964,0.639 -78.094,0.332 -78.164,0 c -0.045,-0.212 -0.065,-0.425 -0.065,-0.641 0,-0.12 0.01,-0.244 0.02,-0.365 0.037,-0.339 0.136,-0.643 0.293,-0.908 l 2.038,-3.57 c -0.577,-0.349 -1.039,-0.8 -1.383,-1.36 -0.342,-0.559 -0.53,-1.193 -0.562,-1.901 h 32.349 13.435 31.698 c -0.032,0.708 -0.22,1.342 -0.562,1.901 -0.344,0.56 -0.806,1.011 -1.383,1.36 l 2.038,3.57 c 0.157,0.265 0.256,0.569 0.293,0.908 0.01,0.121 0.02,0.245 0.02,0.365 C 0.065,-0.425 0.045,-0.212 0,0"
            style="fill:#0a3057;fill-opacity:1;fill-rule:nonzero;stroke:none"
            id="path112" />
        </g>
        <g
          id="g114"
          transform="translate(119.9239,79.5946)">
          <path
            d="m 0,0 c -0.144,-0.139 -0.217,-0.306 -0.217,-0.51 0,-0.222 0.073,-0.4 0.217,-0.536 0.143,-0.136 0.324,-0.204 0.544,-0.204 0.202,0 0.365,0.068 0.492,0.204 0.127,0.136 0.189,0.314 0.189,0.536 0,0.204 -0.062,0.371 -0.189,0.51 C 0.909,0.134 0.746,0.205 0.544,0.205 0.324,0.205 0.143,0.134 0,0"
            style="fill:#0a3057;fill-opacity:1;fill-rule:nonzero;stroke:none"
            id="path116" />
        </g>
        <g
          id="g118"
          transform="translate(87.0192,132.8711)">
          <path
            d="M 0,0 C 0.411,0 0.743,0.335 0.743,0.748 0.743,1.162 0.411,1.497 0,1.497 -0.411,1.497 -0.743,1.162 -0.743,0.748 -0.743,0.335 -0.411,0 0,0"
            style="fill:#0a3057;fill-opacity:1;fill-rule:nonzero;stroke:none"
            id="path120" />
        </g>
        <g
          id="g122"
          transform="translate(121.8245,84.7384)">
          <path
            d="m 0,0 c 0.242,-0.625 0.426,-1.288 0.846,-1.901 h -12.463 -0.453 -0.466 -2.519 c -0.085,0.154 -0.181,0.318 -0.291,0.496 -0.109,0.179 -0.213,0.346 -0.315,0.499 -0.102,-0.037 -0.236,-0.099 -0.406,-0.193 -0.169,-0.093 -0.332,-0.195 -0.492,-0.306 -0.161,-0.11 -0.308,-0.221 -0.442,-0.332 -0.136,-0.11 -0.229,-0.201 -0.279,-0.266 0.473,-0.547 0.715,-1.159 0.731,-1.837 h 3.991 v -0.001 h 21 C 8.005,-3.453 7.61,-2.996 7.266,-2.476 6.92,-1.957 6.652,-1.435 6.469,-0.905 6.266,-1.18 6.015,-1.413 5.722,-1.609 5.426,-1.804 5.11,-1.901 4.772,-1.901 c -0.456,0 -0.871,0.08 -1.24,0.242 C 3.16,-1.497 2.844,-1.274 2.582,-0.981 2.32,-0.695 2.117,-0.344 1.974,0.065 1.829,0.473 -4.395,17.488 -17.022,6.23 -17.511,5.795 -5.613,14.506 0,0"
            style="fill:#0a3057;fill-opacity:1;fill-rule:nonzero;stroke:none"
            id="path124" />
        </g>
        <g
          id="g126"
          transform="translate(85.8469,128.3137)">
          <path
            d="M 0,0 H -1.515 C -1.52,0.038 -1.52,0.091 -1.52,0.128 c 0,0.389 0.131,0.747 0.371,1.045 C -0.873,1.509 -0.493,1.695 0,1.727 Z M 1.735,1.727 C 2.228,1.695 2.609,1.509 2.884,1.173 3.125,0.875 3.256,0.517 3.256,0.128 3.256,0.091 3.256,0.038 3.251,0 H 1.735 Z m -17.832,-51.06 c 0.214,0 0.428,0.037 0.625,0.103 0.369,0.127 0.673,0.388 0.91,0.779 0.162,0.267 0.31,0.619 0.359,1.037 h 0.121 v -10e-4 H 2.581 17.508 c 0.018,0.576 0.189,1.108 0.519,1.593 0.329,0.485 0.757,0.893 1.29,1.225 0.532,0.332 1.134,0.586 1.808,0.766 0.622,0.161 1.273,0.245 1.937,0.245 0.051,0 0.111,-0.002 0.164,-0.002 0,0.474 -0.093,0.918 -0.279,1.327 -0.185,0.408 -0.433,0.768 -0.746,1.083 -0.313,0.314 -0.671,0.578 -1.076,0.791 -0.403,0.212 -0.817,0.371 -1.24,0.473 -0.033,0.218 -0.101,0.414 -0.202,0.587 -0.102,0.167 -0.223,0.326 -0.366,0.47 -0.144,0.145 -0.29,0.298 -0.442,0.46 -0.153,0.161 -0.288,0.351 -0.406,0.575 -0.101,-0.224 -0.228,-0.414 -0.38,-0.575 -0.152,-0.162 -0.302,-0.315 -0.454,-0.46 -0.152,-0.144 -0.284,-0.303 -0.394,-0.47 -0.11,-0.173 -0.181,-0.369 -0.214,-0.587 -0.423,-0.102 -0.831,-0.261 -1.228,-0.473 -0.395,-0.213 -0.747,-0.477 -1.048,-0.791 -0.304,-0.315 -0.549,-0.675 -0.735,-1.083 -0.186,-0.409 -0.279,-0.853 -0.279,-1.327 0.071,0 0.147,0.002 0.217,0.002 0.414,0 0.837,-0.034 1.251,-0.104 0.49,-0.088 0.954,-0.224 1.391,-0.409 0.186,0.256 0.405,0.5 0.659,0.741 0.253,0.235 0.547,0.447 0.884,0.638 -0.185,0.101 -0.417,0.209 -0.695,0.331 -0.279,0.116 -0.527,0.219 -0.747,0.306 0.22,0.102 0.423,0.182 0.609,0.241 0.186,0.06 0.419,0.105 0.707,0.142 -0.003,0.017 -0.003,0.043 -0.003,0.059 0,0.154 0.062,0.289 0.18,0.386 0.135,0.111 0.228,0.269 0.279,0.474 0.051,-0.205 0.144,-0.363 0.279,-0.474 0.118,-0.099 0.18,-0.23 0.18,-0.386 0,-0.019 0,-0.04 -0.003,-0.059 0.288,-0.037 0.518,-0.082 0.696,-0.142 0.177,-0.059 0.383,-0.139 0.619,-0.241 -0.844,-0.292 -1.644,-0.711 -2.402,-1.264 -0.76,-0.553 -1.36,-1.262 -1.797,-2.129 H 4.8 V -1.849 H 4.079 V -45.476 H 2.581 1.924 V -1.409 H 4.758 V 0.428 C 4.758,0.867 4.684,1.264 4.544,1.613 4.4,1.961 4.214,2.259 3.986,2.506 3.758,2.752 3.501,2.943 3.214,3.081 2.927,3.215 2.648,3.291 2.378,3.31 2.227,3.324 2.09,3.338 1.961,3.352 H 1.812 C 2.084,3.449 2.329,3.604 2.53,3.804 2.224,3.606 1.86,3.49 1.469,3.49 c -1.086,0 -1.966,0.886 -1.966,1.979 0,0.448 0.15,0.86 0.399,1.191 -0.41,-0.357 -0.671,-0.884 -0.671,-1.473 0,-0.848 0.539,-1.567 1.29,-1.835 H -0.035 C -0.164,3.338 -0.301,3.324 -0.452,3.31 -0.722,3.291 -1.001,3.215 -1.288,3.081 -1.575,2.943 -1.832,2.752 -2.06,2.506 -2.288,2.259 -2.474,1.961 -2.618,1.613 -2.758,1.264 -2.832,0.867 -2.832,0.428 V -1.409 H 0.002 V -45.476 H -2.14 V -1.849 H -2.861 V -45.476 H -13.45 v 10e-4 h -0.757 v 3.734 c -0.423,-0.445 -0.896,-0.836 -1.417,-1.174 -0.524,-0.343 -1.005,-0.581 -1.442,-0.714 0.236,-0.102 0.445,-0.243 0.631,-0.423 0.186,-0.178 0.295,-0.445 0.329,-0.802 v -2.424 c 0,-0.272 -0.059,-0.498 -0.177,-0.677 -0.118,-0.179 -0.271,-0.323 -0.454,-0.434 -0.186,-0.11 -0.388,-0.181 -0.608,-0.215 -0.219,-0.034 -0.431,-0.051 -0.633,-0.051 0.422,-0.29 0.853,-0.491 1.292,-0.601 0.2,-0.051 0.403,-0.077 0.589,-0.077"
            style="fill:#0a3057;fill-opacity:1;fill-rule:nonzero;stroke:none"
            id="path128" />
        </g>
        <g
          id="g506"
          transform="translate(138.3379,83.513)">
          <path
            d="m 0,0 c -0.07,0.332 -0.2,0.639 -0.389,0.923 -0.188,0.283 -0.427,0.508 -0.725,0.685 -0.36,0.202 -0.66,0.42 -0.903,0.649 -0.193,0.18 -0.287,0.438 -0.287,0.774 0,0.087 0.008,0.182 0.018,0.278 l -2.664,-4.747 -0.493,0.874 c -0.374,-0.648 -0.664,-1.148 -0.867,-1.502 -0.203,-0.355 -0.354,-0.615 -0.457,-0.78 -0.101,-0.166 -0.161,-0.266 -0.177,-0.295 -0.016,-0.033 -0.024,-0.057 -0.024,-0.07 h 3.025 l 1.869,3.353 c 0.138,-0.094 0.24,-0.207 0.302,-0.331 0.063,-0.113 0.102,-0.236 0.118,-0.378 0,-0.016 0.003,-0.039 0.003,-0.055 0,-0.126 -0.048,-0.278 -0.144,-0.442 C -2.262,-1.901 -2.661,-2.605 -2.99,-3.18 -3.319,-3.755 -3.591,-4.228 -3.81,-4.598 -4.029,-4.969 -4.196,-5.252 -4.313,-5.449 -4.43,-5.646 -4.514,-5.791 -4.561,-5.885 -4.608,-5.98 -4.634,-6.04 -4.642,-6.064 -4.65,-6.087 -4.655,-6.098 -4.655,-6.098 c 0.251,-0.079 0.53,-0.186 0.833,-0.32 0.305,-0.135 0.561,-0.318 0.761,-0.555 h -27.971 -15.449 -28.622 c 0.2,0.237 0.456,0.42 0.761,0.555 0.303,0.134 0.582,0.241 0.833,0.32 0,0 -0.005,0.011 -0.013,0.034 -0.008,0.024 -0.034,0.084 -0.081,0.179 -0.047,0.094 -0.131,0.239 -0.248,0.436 -0.117,0.197 -0.284,0.48 -0.503,0.851 -0.219,0.37 -0.491,0.843 -0.82,1.418 -0.329,0.575 -0.728,1.279 -1.195,2.116 -0.096,0.164 -0.144,0.316 -0.144,0.442 0,0.016 0.003,0.039 0.003,0.055 0.016,0.142 0.055,0.265 0.118,0.378 0.062,0.124 0.164,0.237 0.302,0.331 l 1.947,-3.353 h 3.025 c 0,0.013 -0.008,0.037 -0.024,0.07 -0.016,0.029 -0.076,0.129 -0.177,0.295 -0.102,0.165 -0.253,0.425 -0.457,0.78 -0.203,0.354 -0.493,0.854 -0.867,1.502 l -0.493,-0.874 -2.742,4.747 c 0.01,-0.096 0.018,-0.191 0.018,-0.278 0,-0.336 -0.094,-0.594 -0.287,-0.774 C -76.39,2.028 -76.69,1.81 -77.05,1.608 -77.348,1.431 -77.587,1.206 -77.775,0.923 -77.964,0.639 -78.094,0.332 -78.164,0 c -0.045,-0.212 -0.065,-0.425 -0.065,-0.641 0,-0.12 0.01,-0.244 0.02,-0.365 0.037,-0.339 0.136,-0.643 0.293,-0.908 l 2.038,-3.57 c -0.577,-0.349 -1.039,-0.8 -1.383,-1.36 -0.342,-0.559 -0.53,-1.193 -0.562,-1.901 h 32.349 13.435 31.698 c -0.032,0.708 -0.22,1.342 -0.562,1.901 -0.344,0.56 -0.806,1.011 -1.383,1.36 l 2.038,3.57 c 0.157,0.265 0.256,0.569 0.293,0.908 0.01,0.121 0.02,0.245 0.02,0.365 C 0.065,-0.425 0.045,-0.212 0,0"
            style="fill:#0a3057;fill-opacity:1;fill-rule:nonzero;stroke:none"
            id="path504" />
        </g>
        <g
          id="g510"
          transform="translate(119.9239,79.5946)">
          <path
            d="m 0,0 c -0.144,-0.139 -0.217,-0.306 -0.217,-0.51 0,-0.222 0.073,-0.4 0.217,-0.536 0.143,-0.136 0.324,-0.204 0.544,-0.204 0.202,0 0.365,0.068 0.492,0.204 0.127,0.136 0.189,0.314 0.189,0.536 0,0.204 -0.062,0.371 -0.189,0.51 C 0.909,0.134 0.746,0.205 0.544,0.205 0.324,0.205 0.143,0.134 0,0"
            style="fill:#0a3057;fill-opacity:1;fill-rule:nonzero;stroke:none"
            id="path508" />
        </g>
        <g
          id="g514"
          transform="translate(87.0192,132.8711)">
          <path
            d="M 0,0 C 0.411,0 0.743,0.335 0.743,0.748 0.743,1.162 0.411,1.497 0,1.497 -0.411,1.497 -0.743,1.162 -0.743,0.748 -0.743,0.335 -0.411,0 0,0"
            style="fill:#0a3057;fill-opacity:1;fill-rule:nonzero;stroke:none"
            id="path512" />
        </g>
        <g
          id="g518"
          transform="translate(121.8245,84.7384)">
          <path
            d="m 0,0 c 0.242,-0.625 0.426,-1.288 0.846,-1.901 h -12.463 -0.453 -0.466 -2.519 c -0.085,0.154 -0.181,0.318 -0.291,0.496 -0.109,0.179 -0.213,0.346 -0.315,0.499 -0.102,-0.037 -0.236,-0.099 -0.406,-0.193 -0.169,-0.093 -0.332,-0.195 -0.492,-0.306 -0.161,-0.11 -0.308,-0.221 -0.442,-0.332 -0.136,-0.11 -0.229,-0.201 -0.279,-0.266 0.473,-0.547 0.715,-1.159 0.731,-1.837 h 3.991 v -0.001 h 21 C 8.005,-3.453 7.61,-2.996 7.266,-2.476 6.92,-1.957 6.652,-1.435 6.469,-0.905 6.266,-1.18 6.015,-1.413 5.722,-1.609 5.426,-1.804 5.11,-1.901 4.772,-1.901 c -0.456,0 -0.871,0.08 -1.24,0.242 C 3.16,-1.497 2.844,-1.274 2.582,-0.981 2.32,-0.695 2.117,-0.344 1.974,0.065 1.829,0.473 -4.395,17.488 -17.022,6.23 -17.511,5.795 -5.613,14.506 0,0"
            style="fill:#0a3057;fill-opacity:1;fill-rule:nonzero;stroke:none"
            id="path516" />
        </g>
        <g
          id="g522"
          transform="translate(85.8469,128.3137)">
          <path
            d="M 0,0 H -1.515 C -1.52,0.038 -1.52,0.091 -1.52,0.128 c 0,0.389 0.131,0.747 0.371,1.045 C -0.873,1.509 -0.493,1.695 0,1.727 Z M 1.735,1.727 C 2.228,1.695 2.609,1.509 2.884,1.173 3.125,0.875 3.256,0.517 3.256,0.128 3.256,0.091 3.256,0.038 3.251,0 H 1.735 Z m -17.832,-51.06 c 0.214,0 0.428,0.037 0.625,0.103 0.369,0.127 0.673,0.388 0.91,0.779 0.162,0.267 0.31,0.619 0.359,1.037 h 0.121 v -10e-4 H 2.581 17.508 c 0.018,0.576 0.189,1.108 0.519,1.593 0.329,0.485 0.757,0.893 1.29,1.225 0.532,0.332 1.134,0.586 1.808,0.766 0.622,0.161 1.273,0.245 1.937,0.245 0.051,0 0.111,-0.002 0.164,-0.002 0,0.474 -0.093,0.918 -0.279,1.327 -0.185,0.408 -0.433,0.768 -0.746,1.083 -0.313,0.314 -0.671,0.578 -1.076,0.791 -0.403,0.212 -0.817,0.371 -1.24,0.473 -0.033,0.218 -0.101,0.414 -0.202,0.587 -0.102,0.167 -0.223,0.326 -0.366,0.47 -0.144,0.145 -0.29,0.298 -0.442,0.46 -0.153,0.161 -0.288,0.351 -0.406,0.575 -0.101,-0.224 -0.228,-0.414 -0.38,-0.575 -0.152,-0.162 -0.302,-0.315 -0.454,-0.46 -0.152,-0.144 -0.284,-0.303 -0.394,-0.47 -0.11,-0.173 -0.181,-0.369 -0.214,-0.587 -0.423,-0.102 -0.831,-0.261 -1.228,-0.473 -0.395,-0.213 -0.747,-0.477 -1.048,-0.791 -0.304,-0.315 -0.549,-0.675 -0.735,-1.083 -0.186,-0.409 -0.279,-0.853 -0.279,-1.327 0.071,0 0.147,0.002 0.217,0.002 0.414,0 0.837,-0.034 1.251,-0.104 0.49,-0.088 0.954,-0.224 1.391,-0.409 0.186,0.256 0.405,0.5 0.659,0.741 0.253,0.235 0.547,0.447 0.884,0.638 -0.185,0.101 -0.417,0.209 -0.695,0.331 -0.279,0.116 -0.527,0.219 -0.747,0.306 0.22,0.102 0.423,0.182 0.609,0.241 0.186,0.06 0.419,0.105 0.707,0.142 -0.003,0.017 -0.003,0.043 -0.003,0.059 0,0.154 0.062,0.289 0.18,0.386 0.135,0.111 0.228,0.269 0.279,0.474 0.051,-0.205 0.144,-0.363 0.279,-0.474 0.118,-0.099 0.18,-0.23 0.18,-0.386 0,-0.019 0,-0.04 -0.003,-0.059 0.288,-0.037 0.518,-0.082 0.696,-0.142 0.177,-0.059 0.383,-0.139 0.619,-0.241 -0.844,-0.292 -1.644,-0.711 -2.402,-1.264 -0.76,-0.553 -1.36,-1.262 -1.797,-2.129 H 4.8 V -1.849 H 4.079 V -45.476 H 2.581 1.924 V -1.409 H 4.758 V 0.428 C 4.758,0.867 4.684,1.264 4.544,1.613 4.4,1.961 4.214,2.259 3.986,2.506 3.758,2.752 3.501,2.943 3.214,3.081 2.927,3.215 2.648,3.291 2.378,3.31 2.227,3.324 2.09,3.338 1.961,3.352 H 1.812 C 2.084,3.449 2.329,3.604 2.53,3.804 2.224,3.606 1.86,3.49 1.469,3.49 c -1.086,0 -1.966,0.886 -1.966,1.979 0,0.448 0.15,0.86 0.399,1.191 -0.41,-0.357 -0.671,-0.884 -0.671,-1.473 0,-0.848 0.539,-1.567 1.29,-1.835 H -0.035 C -0.164,3.338 -0.301,3.324 -0.452,3.31 -0.722,3.291 -1.001,3.215 -1.288,3.081 -1.575,2.943 -1.832,2.752 -2.06,2.506 -2.288,2.259 -2.474,1.961 -2.618,1.613 -2.758,1.264 -2.832,0.867 -2.832,0.428 V -1.409 H 0.002 V -45.476 H -2.14 V -1.849 H -2.861 V -45.476 H -13.45 v 10e-4 h -0.757 v 3.734 c -0.423,-0.445 -0.896,-0.836 -1.417,-1.174 -0.524,-0.343 -1.005,-0.581 -1.442,-0.714 0.236,-0.102 0.445,-0.243 0.631,-0.423 0.186,-0.178 0.295,-0.445 0.329,-0.802 v -2.424 c 0,-0.272 -0.059,-0.498 -0.177,-0.677 -0.118,-0.179 -0.271,-0.323 -0.454,-0.434 -0.186,-0.11 -0.388,-0.181 -0.608,-0.215 -0.219,-0.034 -0.431,-0.051 -0.633,-0.051 0.422,-0.29 0.853,-0.491 1.292,-0.601 0.2,-0.051 0.403,-0.077 0.589,-0.077"
            style="fill:#0a3057;fill-opacity:1;fill-rule:nonzero;stroke:none"
            id="path520" />
        </g>
      </g>
    </g>
  </g>
</svg>
