<?xml version="1.0" encoding="UTF-8" standalone="no"?>
<!-- Created with Inkscape (http://www.inkscape.org/) -->

<svg
  version="1.1"
  id="svg47"
  width="136.27895"
  height="116.88733"
  viewBox="0 0 136.27894 116.88733"
  xmlns="http://www.w3.org/2000/svg"
  xmlns:svg="http://www.w3.org/2000/svg">
  <defs
    id="defs51">
    <clipPath
      clipPathUnits="userSpaceOnUse"
      id="clipPath63">
      <path
        d="M 0,179.612 H 201.047 V 0 H 0 Z"
        id="path61" />
    </clipPath>
  </defs>
  <g
    id="g55"
    transform="matrix(1.3333333,0,0,-1.3333333,-64.201196,179.96493)">
    <g
      id="g57">
      <g
        id="g59"
        clip-path="url(#clipPath63)">
        <g
          id="g65"
          transform="translate(138.3379,83.513)">
          <path
            d="m 0,0 c -0.07,0.332 -0.2,0.639 -0.389,0.923 -0.188,0.283 -0.427,0.508 -0.725,0.685 -0.36,0.202 -0.66,0.42 -0.903,0.649 -0.193,0.18 -0.287,0.438 -0.287,0.774 0,0.087 0.008,0.182 0.018,0.278 l -2.664,-4.747 -0.493,0.874 c -0.374,-0.648 -0.664,-1.148 -0.867,-1.502 -0.203,-0.355 -0.354,-0.615 -0.457,-0.78 -0.101,-0.166 -0.161,-0.266 -0.177,-0.295 -0.016,-0.033 -0.024,-0.057 -0.024,-0.07 h 3.025 l 1.869,3.353 c 0.138,-0.094 0.24,-0.207 0.302,-0.331 0.063,-0.113 0.102,-0.236 0.118,-0.378 0,-0.016 0.003,-0.039 0.003,-0.055 0,-0.126 -0.048,-0.278 -0.144,-0.442 C -2.262,-1.901 -2.661,-2.605 -2.99,-3.18 -3.319,-3.755 -3.591,-4.228 -3.81,-4.598 -4.029,-4.969 -4.196,-5.252 -4.313,-5.449 -4.43,-5.646 -4.514,-5.791 -4.561,-5.885 -4.608,-5.98 -4.634,-6.04 -4.642,-6.064 -4.65,-6.087 -4.655,-6.098 -4.655,-6.098 c 0.251,-0.079 0.53,-0.186 0.833,-0.32 0.305,-0.135 0.561,-0.318 0.761,-0.555 h -27.971 -15.449 -28.622 c 0.2,0.237 0.456,0.42 0.761,0.555 0.303,0.134 0.582,0.241 0.833,0.32 0,0 -0.005,0.011 -0.013,0.034 -0.008,0.024 -0.034,0.084 -0.081,0.179 -0.047,0.094 -0.131,0.239 -0.248,0.436 -0.117,0.197 -0.284,0.48 -0.503,0.851 -0.219,0.37 -0.491,0.843 -0.82,1.418 -0.329,0.575 -0.728,1.279 -1.195,2.116 -0.096,0.164 -0.144,0.316 -0.144,0.442 0,0.016 0.003,0.039 0.003,0.055 0.016,0.142 0.055,0.265 0.118,0.378 0.062,0.124 0.164,0.237 0.302,0.331 l 1.947,-3.353 h 3.025 c 0,0.013 -0.008,0.037 -0.024,0.07 -0.016,0.029 -0.076,0.129 -0.177,0.295 -0.102,0.165 -0.253,0.425 -0.457,0.78 -0.203,0.354 -0.493,0.854 -0.867,1.502 l -0.493,-0.874 -2.742,4.747 c 0.01,-0.096 0.018,-0.191 0.018,-0.278 0,-0.336 -0.094,-0.594 -0.287,-0.774 C -76.39,2.028 -76.69,1.81 -77.05,1.608 -77.348,1.431 -77.587,1.206 -77.775,0.923 -77.964,0.639 -78.094,0.332 -78.164,0 c -0.045,-0.212 -0.065,-0.425 -0.065,-0.641 0,-0.12 0.01,-0.244 0.02,-0.365 0.037,-0.339 0.136,-0.643 0.293,-0.908 l 2.038,-3.57 c -0.577,-0.349 -1.039,-0.8 -1.383,-1.36 -0.342,-0.559 -0.53,-1.193 -0.562,-1.901 h 32.349 13.435 31.698 c -0.032,0.708 -0.22,1.342 -0.562,1.901 -0.344,0.56 -0.806,1.011 -1.383,1.36 l 2.038,3.57 c 0.157,0.265 0.256,0.569 0.293,0.908 0.01,0.121 0.02,0.245 0.02,0.365 C 0.065,-0.425 0.045,-0.212 0,0"
            style="fill:#ffffff;fill-opacity:1;fill-rule:nonzero;stroke:none"
            id="path67" />
        </g>
        <g
          id="g69"
          transform="translate(119.9239,79.5946)">
          <path
            d="m 0,0 c -0.144,-0.139 -0.217,-0.306 -0.217,-0.51 0,-0.222 0.073,-0.4 0.217,-0.536 0.143,-0.136 0.324,-0.204 0.544,-0.204 0.202,0 0.365,0.068 0.492,0.204 0.127,0.136 0.189,0.314 0.189,0.536 0,0.204 -0.062,0.371 -0.189,0.51 C 0.909,0.134 0.746,0.205 0.544,0.205 0.324,0.205 0.143,0.134 0,0"
            style="fill:#ffffff;fill-opacity:1;fill-rule:nonzero;stroke:none"
            id="path71" />
        </g>
        <g
          id="g73"
          transform="translate(87.0192,132.8711)">
          <path
            d="M 0,0 C 0.411,0 0.743,0.335 0.743,0.748 0.743,1.162 0.411,1.497 0,1.497 -0.411,1.497 -0.743,1.162 -0.743,0.748 -0.743,0.335 -0.411,0 0,0"
            style="fill:#ffffff;fill-opacity:1;fill-rule:nonzero;stroke:none"
            id="path75" />
        </g>
        <g
          id="g77"
          transform="translate(121.8245,84.7384)">
          <path
            d="m 0,0 c 0.242,-0.625 0.426,-1.288 0.846,-1.901 h -12.463 -0.453 -0.466 -2.519 c -0.085,0.154 -0.181,0.318 -0.291,0.496 -0.109,0.179 -0.213,0.346 -0.315,0.499 -0.102,-0.037 -0.236,-0.099 -0.406,-0.193 -0.169,-0.093 -0.332,-0.195 -0.492,-0.306 -0.161,-0.11 -0.308,-0.221 -0.442,-0.332 -0.136,-0.11 -0.229,-0.201 -0.279,-0.266 0.473,-0.547 0.715,-1.159 0.731,-1.837 h 3.991 v -0.001 h 21 C 8.005,-3.453 7.61,-2.996 7.266,-2.476 6.92,-1.957 6.652,-1.435 6.469,-0.905 6.266,-1.18 6.015,-1.413 5.722,-1.609 5.426,-1.804 5.11,-1.901 4.772,-1.901 c -0.456,0 -0.871,0.08 -1.24,0.242 C 3.16,-1.497 2.844,-1.274 2.582,-0.981 2.32,-0.695 2.117,-0.344 1.974,0.065 1.829,0.473 -4.395,17.488 -17.022,6.23 -17.511,5.795 -5.613,14.506 0,0"
            style="fill:#ffffff;fill-opacity:1;fill-rule:nonzero;stroke:none"
            id="path79" />
        </g>
        <g
          id="g81"
          transform="translate(85.8469,128.3137)">
          <path
            d="M 0,0 H -1.515 C -1.52,0.038 -1.52,0.091 -1.52,0.128 c 0,0.389 0.131,0.747 0.371,1.045 C -0.873,1.509 -0.493,1.695 0,1.727 Z M 1.735,1.727 C 2.228,1.695 2.609,1.509 2.884,1.173 3.125,0.875 3.256,0.517 3.256,0.128 3.256,0.091 3.256,0.038 3.251,0 H 1.735 Z m -17.832,-51.06 c 0.214,0 0.428,0.037 0.625,0.103 0.369,0.127 0.673,0.388 0.91,0.779 0.162,0.267 0.31,0.619 0.359,1.037 h 0.121 v -10e-4 H 2.581 17.508 c 0.018,0.576 0.189,1.108 0.519,1.593 0.329,0.485 0.757,0.893 1.29,1.225 0.532,0.332 1.134,0.586 1.808,0.766 0.622,0.161 1.273,0.245 1.937,0.245 0.051,0 0.111,-0.002 0.164,-0.002 0,0.474 -0.093,0.918 -0.279,1.327 -0.185,0.408 -0.433,0.768 -0.746,1.083 -0.313,0.314 -0.671,0.578 -1.076,0.791 -0.403,0.212 -0.817,0.371 -1.24,0.473 -0.033,0.218 -0.101,0.414 -0.202,0.587 -0.102,0.167 -0.223,0.326 -0.366,0.47 -0.144,0.145 -0.29,0.298 -0.442,0.46 -0.153,0.161 -0.288,0.351 -0.406,0.575 -0.101,-0.224 -0.228,-0.414 -0.38,-0.575 -0.152,-0.162 -0.302,-0.315 -0.454,-0.46 -0.152,-0.144 -0.284,-0.303 -0.394,-0.47 -0.11,-0.173 -0.181,-0.369 -0.214,-0.587 -0.423,-0.102 -0.831,-0.261 -1.228,-0.473 -0.395,-0.213 -0.747,-0.477 -1.048,-0.791 -0.304,-0.315 -0.549,-0.675 -0.735,-1.083 -0.186,-0.409 -0.279,-0.853 -0.279,-1.327 0.071,0 0.147,0.002 0.217,0.002 0.414,0 0.837,-0.034 1.251,-0.104 0.49,-0.088 0.954,-0.224 1.391,-0.409 0.186,0.256 0.405,0.5 0.659,0.741 0.253,0.235 0.547,0.447 0.884,0.638 -0.185,0.101 -0.417,0.209 -0.695,0.331 -0.279,0.116 -0.527,0.219 -0.747,0.306 0.22,0.102 0.423,0.182 0.609,0.241 0.186,0.06 0.419,0.105 0.707,0.142 -0.003,0.017 -0.003,0.043 -0.003,0.059 0,0.154 0.062,0.289 0.18,0.386 0.135,0.111 0.228,0.269 0.279,0.474 0.051,-0.205 0.144,-0.363 0.279,-0.474 0.118,-0.099 0.18,-0.23 0.18,-0.386 0,-0.019 0,-0.04 -0.003,-0.059 0.288,-0.037 0.518,-0.082 0.696,-0.142 0.177,-0.059 0.383,-0.139 0.619,-0.241 -0.844,-0.292 -1.644,-0.711 -2.402,-1.264 -0.76,-0.553 -1.36,-1.262 -1.797,-2.129 H 4.8 V -1.849 H 4.079 V -45.476 H 2.581 1.924 V -1.409 H 4.758 V 0.428 C 4.758,0.867 4.684,1.264 4.544,1.613 4.4,1.961 4.214,2.259 3.986,2.506 3.758,2.752 3.501,2.943 3.214,3.081 2.927,3.215 2.648,3.291 2.378,3.31 2.227,3.324 2.09,3.338 1.961,3.352 H 1.812 C 2.084,3.449 2.329,3.604 2.53,3.804 2.224,3.606 1.86,3.49 1.469,3.49 c -1.086,0 -1.966,0.886 -1.966,1.979 0,0.448 0.15,0.86 0.399,1.191 -0.41,-0.357 -0.671,-0.884 -0.671,-1.473 0,-0.848 0.539,-1.567 1.29,-1.835 H -0.035 C -0.164,3.338 -0.301,3.324 -0.452,3.31 -0.722,3.291 -1.001,3.215 -1.288,3.081 -1.575,2.943 -1.832,2.752 -2.06,2.506 -2.288,2.259 -2.474,1.961 -2.618,1.613 -2.758,1.264 -2.832,0.867 -2.832,0.428 V -1.409 H 0.002 V -45.476 H -2.14 V -1.849 H -2.861 V -45.476 H -13.45 v 10e-4 h -0.757 v 3.734 c -0.423,-0.445 -0.896,-0.836 -1.417,-1.174 -0.524,-0.343 -1.005,-0.581 -1.442,-0.714 0.236,-0.102 0.445,-0.243 0.631,-0.423 0.186,-0.178 0.295,-0.445 0.329,-0.802 v -2.424 c 0,-0.272 -0.059,-0.498 -0.177,-0.677 -0.118,-0.179 -0.271,-0.323 -0.454,-0.434 -0.186,-0.11 -0.388,-0.181 -0.608,-0.215 -0.219,-0.034 -0.431,-0.051 -0.633,-0.051 0.422,-0.29 0.853,-0.491 1.292,-0.601 0.2,-0.051 0.403,-0.077 0.589,-0.077"
            style="fill:#ffffff;fill-opacity:1;fill-rule:nonzero;stroke:none"
            id="path83" />
        </g>
        <g
          id="g85"
          transform="translate(50.9599,63.9319)">
          <path
            d="m 0,0 h -2.305 c 0.211,0.284 0.235,0.316 0.259,0.373 0.09,0.155 0.09,0.284 0.09,0.39 0,0.13 -0.016,0.755 -0.016,0.901 0,0.593 0.016,1.526 0.024,2.078 0.008,0.455 0.04,1.185 0.04,1.64 -0.454,0 -0.552,-0.008 -0.901,-0.04 l 0.723,0.389 h 1.948 C -0.186,5.691 -0.292,5.609 -0.373,5.544 -0.487,5.455 -0.52,5.431 -0.544,5.342 -0.568,5.236 -0.576,4.903 -0.584,4.448 -0.592,4.14 -0.6,3.831 -0.609,3.531 -0.617,3.036 -0.625,2.37 -0.625,1.859 c 0,-0.195 0,-1.202 0.025,-1.315 0.04,-0.195 0.219,-0.211 0.381,-0.228 0.211,-0.008 0.503,-0.024 0.706,-0.048 z"
            style="fill:#ffffff;fill-opacity:1;fill-rule:nonzero;stroke:none"
            id="path87" />
        </g>
        <g
          id="g89"
          transform="translate(54.331,67.033)">
          <path
            d="m 0,0 c -0.26,0.308 -0.52,0.422 -0.706,0.422 -0.309,0 -0.528,-0.244 -0.528,-0.52 0,-0.39 0.422,-0.568 0.682,-0.682 0.357,-0.137 0.454,-0.178 0.6,-0.251 0.122,-0.065 0.577,-0.317 0.577,-0.901 0,-0.682 -0.625,-1.291 -1.786,-1.291 -0.657,0 -1.185,0.195 -1.542,0.333 l 0.527,0.665 0.374,0.09 -0.195,-0.333 c 0.308,-0.308 0.617,-0.479 0.893,-0.479 0.373,0 0.617,0.285 0.617,0.585 0,0.39 -0.349,0.551 -0.633,0.69 l -0.252,0.105 c -0.349,0.162 -0.933,0.422 -0.933,1.087 0,0.204 0.072,0.447 0.267,0.674 0.325,0.382 0.844,0.504 1.356,0.504 0.576,0 1.023,-0.154 1.372,-0.268 l -0.487,-0.617 -0.35,-0.13 z"
            style="fill:#ffffff;fill-opacity:1;fill-rule:nonzero;stroke:none"
            id="path91" />
        </g>
        <g
          id="g93"
          transform="translate(57.6027,63.9319)">
          <path
            d="m 0,0 h -1.956 c 0.024,0.041 0.129,0.227 0.138,0.251 0.04,0.074 0.056,0.114 0.056,0.245 0,0.072 -0.008,0.421 -0.016,0.502 v 0.91 c 0,0.284 0.033,2.556 0.065,3.491 -0.325,0.008 -0.422,0.008 -0.82,-0.025 l 0.593,0.357 h 1.769 C -0.219,5.682 -0.301,5.609 -0.341,5.56 -0.406,5.487 -0.422,5.431 -0.43,5.342 -0.439,5.236 -0.52,2.394 -0.52,1.404 c 0,-0.049 0,-0.738 0.008,-0.86 0.008,-0.154 0.049,-0.203 0.187,-0.228 0.098,-0.008 0.601,-0.04 0.714,-0.048 z"
            style="fill:#ffffff;fill-opacity:1;fill-rule:nonzero;stroke:none"
            id="path95" />
        </g>
        <g
          id="g97"
          transform="translate(60.6274,65.2391)">
          <path
            d="m 0,0 c -0.098,0.349 -0.122,0.438 -0.154,0.528 -0.033,0.08 -0.073,0.145 -0.179,0.145 -0.43,0 -0.844,-0.463 -0.844,-0.941 0,-0.373 0.292,-0.633 0.698,-0.633 0.26,0 0.487,0.113 0.706,0.227 C 0.138,-0.439 0.106,-0.349 0,0 M 1.21,0.218 C 1.477,-0.625 1.575,-0.853 1.924,-1.364 1.818,-1.397 1.745,-1.421 1.575,-1.421 c -0.147,0 -0.293,0.016 -0.439,0.049 -0.552,0.13 -0.73,0.422 -0.86,0.625 L 0.024,-1.08 c -0.13,-0.057 -0.259,-0.114 -0.397,-0.162 -0.357,-0.13 -0.772,-0.187 -1.023,-0.187 -0.739,0 -1.039,0.463 -1.039,0.917 0,1.007 1.347,1.324 2.134,1.518 -0.3,0.877 -0.47,1.08 -1.225,1.08 -0.097,0 -0.195,0 -0.382,-0.017 l 0.739,0.325 C -0.658,2.402 -0.146,2.37 0.106,2.289 0.601,2.126 0.763,1.729 1.039,0.779 Z"
            style="fill:#ffffff;fill-opacity:1;fill-rule:nonzero;stroke:none"
            id="path99" />
        </g>
        <g
          id="g101"
          transform="translate(63.0452,67.6094)">
          <path
            d="M 0,0 H 1.632 C 1.51,-0.171 1.502,-0.195 1.486,-0.219 1.469,-0.26 1.469,-0.301 1.469,-0.625 1.697,-0.341 2.176,0.13 2.914,0.13 c 0.301,0 0.633,-0.106 0.836,-0.269 0.114,-0.096 0.293,-0.308 0.341,-0.535 0.244,0.276 0.69,0.804 1.502,0.804 0.333,0 0.69,-0.114 0.933,-0.341 0.277,-0.252 0.358,-0.512 0.358,-1.267 0,-0.219 -0.033,-1.29 -0.033,-1.533 -0.008,-0.171 0,-0.228 0.016,-0.269 C 6.9,-3.401 6.932,-3.418 7.622,-3.458 L 7.249,-3.678 H 5.358 l 0.121,0.163 c 0.049,0.057 0.09,0.106 0.122,0.187 0.032,0.089 0.041,0.105 0.041,1.85 0,0.585 -0.065,0.763 -0.211,0.894 -0.106,0.088 -0.252,0.145 -0.398,0.145 -0.552,0 -0.869,-0.714 -0.869,-0.739 0,-0.162 0.009,-0.421 0.009,-0.592 0,-0.325 0,-0.665 -0.009,-0.99 0,-0.073 -0.008,-0.374 -0.008,-0.431 0,-0.186 0.065,-0.21 0.268,-0.218 0.073,-0.009 0.43,-0.049 0.511,-0.049 l -0.397,-0.22 h -1.9 l 0.203,0.26 c 0.041,0.066 0.09,0.146 0.098,0.552 0,0.163 -0.008,0.974 -0.008,1.153 0,0.78 -0.017,0.933 -0.171,1.104 -0.089,0.105 -0.227,0.178 -0.398,0.178 -0.308,0 -0.641,-0.243 -0.885,-0.747 -0.008,-0.397 -0.016,-0.9 -0.016,-1.006 0,-0.235 0,-0.779 0.016,-0.99 0.017,-0.146 0.041,-0.178 0.098,-0.211 0.097,-0.041 0.584,-0.041 0.698,-0.057 L 1.892,-3.678 H 0 l 0.179,0.26 c 0.04,0.082 0.048,0.105 0.056,0.203 0,0.163 -0.016,0.99 -0.016,1.177 0,0.26 0.016,1.494 0.025,1.778 -0.341,-0.008 -0.422,-0.016 -0.788,-0.049 z"
            style="fill:#ffffff;fill-opacity:1;fill-rule:nonzero;stroke:none"
            id="path103" />
        </g>
        <g
          id="g105"
          transform="translate(71.9126,68.2585)">
          <path
            d="m 0,0 c -0.349,0.308 -0.504,0.447 -0.739,0.771 0.333,0.268 0.471,0.398 0.82,0.764 C 0.397,1.153 0.503,1.047 0.812,0.771 0.576,0.479 0.308,0.219 0,0 m 1.112,-4.327 h -1.908 c 0.033,0.041 0.195,0.252 0.228,0.308 0.04,0.074 0.04,0.131 0.04,0.261 0,0.113 -0.008,0.219 -0.008,0.333 -0.008,0.161 -0.008,0.332 -0.008,0.494 0,0.285 0.024,1.681 0.024,1.998 -0.357,0.008 -0.454,0.008 -0.803,-0.017 l 0.584,0.309 H 0.869 C 0.698,-0.845 0.698,-0.845 0.698,-1.339 0.698,-1.421 0.69,-1.908 0.682,-2.078 0.674,-2.452 0.674,-2.866 0.674,-3.247 c 0,-0.146 0,-0.584 0.032,-0.69 C 0.73,-4.042 0.803,-4.05 0.869,-4.05 0.998,-4.058 1.396,-4.091 1.485,-4.099 Z"
            style="fill:#ffffff;fill-opacity:1;fill-rule:nonzero;stroke:none"
            id="path107" />
        </g>
        <g
          id="g109"
          transform="translate(76.7748,64.0216)">
          <path
            d="m 0,0 c -0.203,-0.049 -0.406,-0.106 -0.609,-0.147 -0.178,-0.032 -0.414,-0.064 -0.673,-0.064 -1.608,0 -2.006,1.111 -2.006,1.842 0,0.918 0.61,1.51 1.048,1.761 0.43,0.245 0.917,0.325 1.412,0.325 0.609,0 0.917,-0.105 1.201,-0.203 L -0.308,2.776 -0.674,2.662 -0.43,3.06 c -0.154,0.13 -0.414,0.349 -0.804,0.349 -0.162,0 -0.941,-0.065 -0.941,-1.015 0,-0.568 0.349,-2.135 1.68,-2.135 0.349,0 0.552,0.073 1.031,0.244 z"
            style="fill:#ffffff;fill-opacity:1;fill-rule:nonzero;stroke:none"
            id="path111" />
        </g>
        <g
          id="g113"
          transform="translate(82.6121,69.0214)">
          <path
            d="m 0,0 c -0.098,0.139 -0.455,0.455 -0.942,0.455 -0.511,0 -0.998,-0.341 -0.998,-0.918 0,-0.551 0.438,-0.771 1.039,-1.08 0.925,-0.462 1.761,-0.933 1.761,-1.898 0,-0.504 -0.219,-0.894 -0.463,-1.145 -0.511,-0.528 -1.25,-0.641 -1.923,-0.641 -0.982,0 -1.616,0.259 -2.078,0.454 l 0.681,0.779 0.382,0.065 -0.284,-0.447 c 0.081,-0.08 0.146,-0.137 0.365,-0.259 0.26,-0.154 0.52,-0.268 0.893,-0.268 0.739,0 1.112,0.536 1.112,1.007 0,0.681 -0.592,0.965 -1.201,1.258 L -1.9,-2.516 c -0.503,0.267 -1.201,0.641 -1.201,1.55 0,1.039 0.95,1.746 2.167,1.746 0.577,0 1.283,-0.163 1.68,-0.406 L 0.105,-0.349 -0.252,-0.43 Z"
            style="fill:#ffffff;fill-opacity:1;fill-rule:nonzero;stroke:none"
            id="path115" />
        </g>
        <g
          id="g117"
          transform="translate(88.9125,63.9319)">
          <path
            d="m 0,0 h -1.916 c 0.016,0.024 0.203,0.276 0.211,0.284 0.025,0.041 0.041,0.065 0.049,0.122 0.024,0.106 0.024,0.698 0.024,0.836 0.009,0.17 0,0.974 0,1.161 0,0.365 -0.032,0.52 -0.146,0.657 -0.13,0.155 -0.3,0.187 -0.422,0.187 -0.479,0 -0.779,-0.56 -0.885,-0.739 -0.008,-0.34 -0.016,-0.536 -0.016,-1.006 0,-0.171 0.008,-0.836 0.016,-1.015 C -3.077,0.39 -3.06,0.316 -2.89,0.292 -2.809,0.276 -2.37,0.251 -2.273,0.243 L -2.662,0 h -1.892 c 0.089,0.138 0.098,0.155 0.162,0.251 0.065,0.114 0.073,0.155 0.073,0.285 0,0.146 -0.008,0.844 -0.008,1.007 v 1.672 c 0,0.665 0.033,1.826 0.049,2.24 -0.316,0.008 -0.398,0.008 -0.788,-0.016 l 0.544,0.292 h 1.64 C -2.947,5.658 -3.02,5.577 -3.036,5.52 -3.044,5.479 -3.068,4.538 -3.077,4.432 c 0,-0.146 -0.008,-0.479 -0.008,-1.364 0.471,0.496 0.861,0.739 1.413,0.739 0.357,0 0.714,-0.098 0.966,-0.349 0.325,-0.325 0.325,-0.731 0.325,-1.307 0,-0.771 0,-0.844 -0.017,-1.542 0,-0.276 0,-0.309 0.276,-0.341 0.065,0 0.422,-0.025 0.495,-0.033 z"
            style="fill:#ffffff;fill-opacity:1;fill-rule:nonzero;stroke:none"
            id="path119" />
        </g>
        <g
          id="g121"
          transform="translate(90.515,68.2585)">
          <path
            d="m 0,0 c -0.349,0.308 -0.504,0.447 -0.739,0.771 0.333,0.268 0.471,0.398 0.82,0.764 C 0.397,1.153 0.503,1.047 0.812,0.771 0.576,0.479 0.308,0.219 0,0 m 1.112,-4.327 h -1.908 c 0.033,0.041 0.195,0.252 0.228,0.308 0.04,0.074 0.04,0.131 0.04,0.261 0,0.113 -0.008,0.219 -0.008,0.333 -0.008,0.161 -0.008,0.332 -0.008,0.494 0,0.285 0.024,1.681 0.024,1.998 -0.357,0.008 -0.454,0.008 -0.803,-0.017 l 0.584,0.309 H 0.869 C 0.698,-0.845 0.698,-0.845 0.698,-1.339 0.698,-1.421 0.69,-1.908 0.682,-2.078 0.674,-2.452 0.674,-2.866 0.674,-3.247 c 0,-0.146 0,-0.584 0.032,-0.69 C 0.73,-4.042 0.803,-4.05 0.869,-4.05 0.998,-4.058 1.396,-4.091 1.485,-4.099 Z"
            style="fill:#ffffff;fill-opacity:1;fill-rule:nonzero;stroke:none"
            id="path123" />
        </g>
        <g
          id="g125"
          transform="translate(94.6761,65.2391)">
          <path
            d="m 0,0 c -0.098,0.349 -0.122,0.438 -0.154,0.528 -0.033,0.08 -0.073,0.145 -0.179,0.145 -0.43,0 -0.844,-0.463 -0.844,-0.941 0,-0.373 0.292,-0.633 0.698,-0.633 0.26,0 0.487,0.113 0.706,0.227 C 0.138,-0.439 0.106,-0.349 0,0 M 1.21,0.218 C 1.477,-0.625 1.575,-0.853 1.924,-1.364 1.818,-1.397 1.745,-1.421 1.575,-1.421 c -0.147,0 -0.293,0.016 -0.439,0.049 -0.552,0.13 -0.73,0.422 -0.86,0.625 L 0.024,-1.08 c -0.13,-0.057 -0.259,-0.114 -0.397,-0.162 -0.357,-0.13 -0.772,-0.187 -1.023,-0.187 -0.739,0 -1.039,0.463 -1.039,0.917 0,1.007 1.347,1.324 2.134,1.518 -0.3,0.877 -0.47,1.08 -1.225,1.08 -0.097,0 -0.195,0 -0.382,-0.017 l 0.739,0.325 C -0.658,2.402 -0.146,2.37 0.106,2.289 0.601,2.126 0.763,1.729 1.039,0.779 Z"
            style="fill:#ffffff;fill-opacity:1;fill-rule:nonzero;stroke:none"
            id="path127" />
        </g>
        <g
          id="g129"
          transform="translate(101.52,63.9319)">
          <path
            d="m 0,0 h -2.305 c 0.211,0.284 0.235,0.316 0.259,0.373 0.09,0.155 0.09,0.284 0.09,0.39 0,0.13 -0.016,0.755 -0.016,0.901 0,0.593 0.016,1.526 0.024,2.078 0.008,0.455 0.04,1.185 0.04,1.64 -0.454,0 -0.552,-0.008 -0.901,-0.04 l 0.723,0.389 h 1.948 C -0.186,5.691 -0.292,5.609 -0.373,5.544 -0.487,5.455 -0.52,5.431 -0.544,5.342 -0.568,5.236 -0.576,4.903 -0.584,4.448 -0.592,4.14 -0.601,3.831 -0.609,3.531 -0.617,3.036 -0.625,2.37 -0.625,1.859 c 0,-0.195 0,-1.202 0.024,-1.315 0.041,-0.195 0.22,-0.211 0.382,-0.228 0.211,-0.008 0.503,-0.024 0.706,-0.048 z"
            style="fill:#ffffff;fill-opacity:1;fill-rule:nonzero;stroke:none"
            id="path131" />
        </g>
        <g
          id="g133"
          transform="translate(103.6927,67.0002)">
          <path
            d="m 0,0 c -0.008,-0.357 -0.024,-1.623 -0.024,-1.786 0,-0.527 0.008,-0.998 0.592,-0.998 0.162,0 0.357,0.032 0.463,0.049 0.04,0 0.089,0.008 0.13,0.016 L 0.787,-3.052 c -0.211,-0.049 -0.544,-0.114 -0.909,-0.114 -0.43,0 -0.885,0.114 -1.063,0.488 -0.089,0.186 -0.089,0.381 -0.089,0.722 0,0.641 0.032,1.85 0.048,2.248 L -1.713,0.276 -1.21,0.617 c 0.008,0.065 0.017,0.406 0.017,0.487 0.073,0.033 0.105,0.049 0.414,0.154 0.121,0.041 0.69,0.277 0.819,0.325 L 0.024,0.609 1.307,0.592 0.779,0.276 0.008,0.292 Z"
            style="fill:#ffffff;fill-opacity:1;fill-rule:nonzero;stroke:none"
            id="path135" />
        </g>
        <g
          id="g137"
          transform="translate(109.7054,63.9319)">
          <path
            d="m 0,0 h -1.916 c 0.016,0.024 0.203,0.276 0.211,0.284 0.025,0.041 0.041,0.065 0.049,0.122 0.024,0.106 0.024,0.698 0.024,0.836 0.009,0.17 0,0.974 0,1.161 0,0.365 -0.032,0.52 -0.146,0.657 -0.13,0.155 -0.3,0.187 -0.422,0.187 -0.479,0 -0.779,-0.56 -0.885,-0.739 -0.008,-0.34 -0.016,-0.536 -0.016,-1.006 0,-0.171 0.008,-0.836 0.016,-1.015 C -3.077,0.39 -3.06,0.316 -2.89,0.292 -2.809,0.276 -2.37,0.251 -2.273,0.243 L -2.662,0 h -1.892 c 0.089,0.138 0.098,0.155 0.162,0.251 0.065,0.114 0.073,0.155 0.073,0.285 0,0.146 -0.008,0.844 -0.008,1.007 v 1.672 c 0,0.665 0.033,1.826 0.049,2.24 -0.316,0.008 -0.398,0.008 -0.788,-0.016 l 0.544,0.292 h 1.64 C -2.947,5.658 -3.02,5.577 -3.036,5.52 -3.044,5.479 -3.068,4.538 -3.077,4.432 c 0,-0.146 -0.008,-0.479 -0.008,-1.364 0.471,0.496 0.861,0.739 1.413,0.739 0.357,0 0.714,-0.098 0.966,-0.349 0.325,-0.325 0.325,-0.731 0.325,-1.307 0,-0.771 0,-0.844 -0.017,-1.542 0,-0.276 0,-0.309 0.276,-0.341 0.065,0 0.422,-0.025 0.495,-0.033 z"
            style="fill:#ffffff;fill-opacity:1;fill-rule:nonzero;stroke:none"
            id="path139" />
        </g>
        <g
          id="g141"
          transform="translate(115.0906,63.9319)">
          <path
            d="m 0,0 h -1.916 c 0.016,0.024 0.203,0.276 0.211,0.284 0.025,0.041 0.041,0.065 0.049,0.122 0.024,0.106 0.024,0.698 0.024,0.836 0.009,0.17 0,0.974 0,1.161 0,0.365 -0.032,0.52 -0.146,0.657 -0.13,0.155 -0.3,0.187 -0.422,0.187 -0.479,0 -0.787,-0.56 -0.885,-0.739 -0.008,-0.34 -0.016,-0.536 -0.016,-1.006 0,-0.171 0,-0.836 0.016,-1.015 0.008,-0.097 0.017,-0.171 0.187,-0.195 0.089,-0.016 0.52,-0.041 0.617,-0.049 L -2.671,0 h -1.883 c 0.081,0.138 0.098,0.155 0.154,0.251 0.073,0.114 0.081,0.155 0.081,0.285 0,0.113 -0.016,0.69 -0.016,0.811 0,0.26 0,0.512 0.008,0.772 0,0.178 0.017,1.079 0.017,1.282 -0.317,0.008 -0.406,0.008 -0.796,-0.016 l 0.552,0.293 h 1.632 C -2.979,3.604 -3.06,3.523 -3.068,3.466 -3.085,3.409 -3.085,3.304 -3.085,3.068 c 0.593,0.649 1.056,0.739 1.413,0.739 0.357,0 0.714,-0.098 0.966,-0.349 0.325,-0.325 0.325,-0.731 0.325,-1.307 0,-0.771 0,-0.844 -0.017,-1.542 0,-0.276 0,-0.309 0.276,-0.341 0.065,0 0.422,-0.025 0.495,-0.033 z"
            style="fill:#ffffff;fill-opacity:1;fill-rule:nonzero;stroke:none"
            id="path143" />
        </g>
        <g
          id="g145"
          transform="translate(118.1602,65.2391)">
          <path
            d="m 0,0 c -0.098,0.349 -0.122,0.438 -0.154,0.528 -0.033,0.08 -0.073,0.145 -0.179,0.145 -0.43,0 -0.844,-0.463 -0.844,-0.941 0,-0.373 0.292,-0.633 0.698,-0.633 0.26,0 0.487,0.113 0.706,0.227 C 0.138,-0.439 0.106,-0.349 0,0 M 1.21,0.218 C 1.477,-0.625 1.575,-0.853 1.924,-1.364 1.818,-1.397 1.745,-1.421 1.575,-1.421 c -0.147,0 -0.293,0.016 -0.439,0.049 -0.552,0.13 -0.73,0.422 -0.86,0.625 L 0.024,-1.08 c -0.13,-0.057 -0.259,-0.114 -0.397,-0.162 -0.357,-0.13 -0.772,-0.187 -1.023,-0.187 -0.739,0 -1.039,0.463 -1.039,0.917 0,1.007 1.347,1.324 2.134,1.518 -0.3,0.877 -0.47,1.08 -1.225,1.08 -0.097,0 -0.195,0 -0.382,-0.017 l 0.739,0.325 C -0.658,2.402 -0.146,2.37 0.106,2.289 0.601,2.126 0.763,1.729 1.039,0.779 Z"
            style="fill:#ffffff;fill-opacity:1;fill-rule:nonzero;stroke:none"
            id="path147" />
        </g>
        <g
          id="g149"
          transform="translate(123.4904,66.2861)">
          <path
            d="M 0,0 -0.771,-0.463 H -3.368 L -2.614,0 Z"
            style="fill:#ffffff;fill-opacity:1;fill-rule:nonzero;stroke:none"
            id="path151" />
        </g>
        <g
          id="g153"
          transform="translate(127.2186,66.5295)">
          <path
            d="M 0,0 C -0.008,0.033 -0.016,0.065 -0.032,0.09 -0.106,0.292 -0.528,1.242 -0.617,1.461 -0.755,1.786 -0.804,1.9 -0.925,2.102 -0.942,2.054 -0.966,2.005 -0.982,1.964 -1.007,1.916 -1.591,0.625 -1.607,0.584 -1.794,0.194 -1.818,0.155 -1.883,0 Z M -0.057,3.19 C 0.268,2.598 0.901,1.169 1.153,0.592 1.21,0.455 1.502,-0.227 1.567,-0.382 2.249,-1.916 2.508,-2.135 3.036,-2.574 2.931,-2.598 2.711,-2.662 2.346,-2.662 c -0.528,0 -0.82,0.145 -1.055,0.324 -0.382,0.293 -0.544,0.625 -0.723,1.007 -0.146,0.308 -0.487,1.153 -0.503,1.184 -0.251,-0.024 -0.528,-0.169 -0.633,-0.226 h -1.023 c -0.341,0 -0.398,-0.009 -0.536,-0.203 -0.178,-0.26 -0.56,-0.967 -0.56,-1.177 0,-0.155 0.106,-0.227 0.179,-0.268 0.276,-0.163 0.527,-0.204 1.088,-0.276 L -2.395,-2.63 c -0.487,0.016 -0.722,0.032 -1.282,0.333 0.17,0.162 0.357,0.413 0.568,0.762 0.398,0.65 1.128,2.168 1.217,2.339 0.139,0.3 0.269,0.592 0.407,0.884 0.162,0.341 0.259,0.537 0.316,0.788 -0.024,0.041 -0.057,0.089 -0.113,0.138 -0.179,0.154 -0.415,0.203 -0.65,0.203 -0.089,0 -0.219,-0.008 -0.365,-0.033 l 0.674,0.325 z"
            style="fill:#ffffff;fill-opacity:1;fill-rule:nonzero;stroke:none"
            id="path155" />
        </g>
        <g
          id="g157"
          transform="translate(133.1633,67.033)">
          <path
            d="m 0,0 c -0.26,0.308 -0.52,0.422 -0.706,0.422 -0.309,0 -0.528,-0.244 -0.528,-0.52 0,-0.39 0.422,-0.568 0.682,-0.682 0.357,-0.137 0.454,-0.178 0.6,-0.251 0.122,-0.065 0.577,-0.317 0.577,-0.901 0,-0.682 -0.625,-1.291 -1.786,-1.291 -0.657,0 -1.185,0.195 -1.542,0.333 l 0.527,0.665 0.374,0.09 -0.195,-0.333 c 0.308,-0.308 0.617,-0.479 0.893,-0.479 0.373,0 0.617,0.285 0.617,0.585 0,0.39 -0.349,0.551 -0.633,0.69 l -0.252,0.105 c -0.349,0.162 -0.933,0.422 -0.933,1.087 0,0.204 0.072,0.447 0.267,0.674 0.325,0.382 0.844,0.504 1.356,0.504 0.576,0 1.023,-0.154 1.372,-0.268 l -0.487,-0.617 -0.35,-0.13 z"
            style="fill:#ffffff;fill-opacity:1;fill-rule:nonzero;stroke:none"
            id="path159" />
        </g>
        <g
          id="g161"
          transform="translate(138.9935,63.9319)">
          <path
            d="m 0,0 h -1.916 c 0.016,0.024 0.203,0.276 0.211,0.284 0.025,0.041 0.041,0.065 0.049,0.122 0.024,0.106 0.024,0.698 0.024,0.836 0.009,0.17 0,0.974 0,1.161 0,0.365 -0.032,0.52 -0.146,0.657 -0.13,0.155 -0.3,0.187 -0.422,0.187 -0.479,0 -0.779,-0.56 -0.885,-0.739 -0.008,-0.34 -0.016,-0.536 -0.016,-1.006 0,-0.171 0.008,-0.836 0.016,-1.015 C -3.077,0.39 -3.06,0.316 -2.89,0.292 -2.809,0.276 -2.37,0.251 -2.273,0.243 L -2.662,0 h -1.892 c 0.089,0.138 0.098,0.155 0.162,0.251 0.065,0.114 0.073,0.155 0.073,0.285 0,0.146 -0.008,0.844 -0.008,1.007 v 1.672 c 0,0.665 0.033,1.826 0.049,2.24 -0.316,0.008 -0.398,0.008 -0.788,-0.016 l 0.544,0.292 h 1.64 C -2.947,5.658 -3.02,5.577 -3.036,5.52 -3.044,5.479 -3.068,4.538 -3.077,4.432 c 0,-0.146 -0.008,-0.479 -0.008,-1.364 0.471,0.496 0.861,0.739 1.413,0.739 0.357,0 0.714,-0.098 0.966,-0.349 0.325,-0.325 0.325,-0.731 0.325,-1.307 0,-0.771 0,-0.844 -0.017,-1.542 0,-0.276 0,-0.309 0.276,-0.341 0.065,0 0.422,-0.025 0.495,-0.033 z"
            style="fill:#ffffff;fill-opacity:1;fill-rule:nonzero;stroke:none"
            id="path163" />
        </g>
        <g
          id="g165"
          transform="translate(142.0249,66.3261)">
          <path
            d="m 0,0 c 0.09,0.033 0.227,0.09 0.227,0.244 0,0.236 -0.365,0.82 -0.901,0.82 -0.219,0 -0.43,-0.082 -0.576,-0.235 -0.122,-0.13 -0.219,-0.309 -0.219,-0.65 0,-0.301 0.065,-0.552 0.105,-0.674 z m 0.966,-2.281 c -0.089,-0.024 -0.178,-0.04 -0.268,-0.064 -0.381,-0.09 -0.69,-0.163 -1.136,-0.163 -1.924,0 -2.119,1.38 -2.119,1.827 0,0.908 0.609,1.566 1.25,1.859 0.317,0.137 0.739,0.227 1.064,0.227 0.211,0 0.536,-0.033 0.811,-0.155 0.536,-0.243 0.723,-0.706 0.82,-0.957 l -2.021,-0.821 -0.714,-0.031 c 0.113,-0.349 0.227,-0.593 0.438,-0.886 0.163,-0.218 0.487,-0.6 1.258,-0.6 0.43,0 0.706,0.105 1.145,0.268 z"
            style="fill:#ffffff;fill-opacity:1;fill-rule:nonzero;stroke:none"
            id="path167" />
        </g>
        <g
          id="g169"
          transform="translate(146.8338,66.9193)">
          <path
            d="m 0,0 c -0.081,0.024 -0.138,0.04 -0.26,0.04 -0.495,0 -0.739,-0.243 -0.909,-0.406 -0.016,-0.649 -0.033,-1.298 -0.033,-1.939 0,-0.269 0.009,-0.357 0.22,-0.382 0.105,-0.008 0.601,-0.049 0.714,-0.057 l -0.349,-0.243 h -2.054 c 0.155,0.259 0.187,0.316 0.195,0.429 v 1.227 c 0,0.559 0.008,1.12 0.016,1.688 l -0.828,-0.008 0.569,0.349 h 1.68 C -1.153,0.512 -1.161,0.495 -1.177,0.455 -1.202,0.381 -1.202,0.284 -1.21,0 -1.071,0.163 -0.779,0.512 -0.203,0.698 0.073,0.787 0.349,0.82 0.649,0.804 L 0.227,-0.268 -0.098,-0.423 Z"
            style="fill:#ffffff;fill-opacity:1;fill-rule:nonzero;stroke:none"
            id="path171" />
        </g>
        <g
          id="g173"
          transform="translate(148.8751,68.2585)">
          <path
            d="m 0,0 c -0.349,0.308 -0.504,0.447 -0.739,0.771 0.333,0.268 0.471,0.398 0.82,0.764 C 0.397,1.153 0.503,1.047 0.812,0.771 0.576,0.479 0.308,0.219 0,0 m 1.112,-4.327 h -1.908 c 0.033,0.041 0.195,0.252 0.228,0.308 0.04,0.074 0.04,0.131 0.04,0.261 0,0.113 -0.008,0.219 -0.008,0.333 -0.008,0.161 -0.008,0.332 -0.008,0.494 0,0.285 0.024,1.681 0.024,1.998 -0.357,0.008 -0.454,0.008 -0.803,-0.017 l 0.584,0.309 H 0.869 C 0.698,-0.845 0.698,-0.845 0.698,-1.339 0.698,-1.421 0.69,-1.908 0.682,-2.078 0.674,-2.452 0.674,-2.866 0.674,-3.247 c 0,-0.146 0,-0.584 0.032,-0.69 C 0.73,-4.042 0.803,-4.05 0.869,-4.05 0.998,-4.058 1.396,-4.091 1.485,-4.099 Z"
            style="fill:#ffffff;fill-opacity:1;fill-rule:nonzero;stroke:none"
            id="path175" />
        </g>
        <g
          id="g177"
          transform="translate(66.7947,60.3663)">
          <path
            d="m 0,0 c -0.211,-0.179 -0.219,-0.186 -0.235,-0.617 -0.041,-1.177 -0.057,-2.362 -0.057,-3.539 0,-0.545 0,-0.804 -0.097,-1.178 -0.293,-1.096 -1.25,-1.907 -1.38,-1.972 l -0.617,-0.292 c 0.462,0.69 0.738,1.185 0.738,3.368 0,1.348 0.025,2.703 0.073,4.059 -0.3,0.008 -0.414,0 -1.412,-0.015 l 0.658,0.388 h 2.565 z"
            style="fill:#ffffff;fill-opacity:1;fill-rule:nonzero;stroke:none"
            id="path179" />
        </g>
        <g
          id="g181"
          transform="translate(69.7364,56.1452)">
          <path
            d="m 0,0 c -0.098,0.349 -0.122,0.438 -0.154,0.528 -0.033,0.08 -0.073,0.145 -0.179,0.145 -0.43,0 -0.844,-0.463 -0.844,-0.941 0,-0.373 0.292,-0.633 0.698,-0.633 0.26,0 0.487,0.113 0.706,0.227 C 0.138,-0.439 0.106,-0.349 0,0 M 1.21,0.218 C 1.477,-0.625 1.575,-0.853 1.924,-1.364 1.818,-1.397 1.745,-1.421 1.575,-1.421 c -0.147,0 -0.293,0.016 -0.439,0.049 -0.552,0.13 -0.73,0.422 -0.86,0.625 L 0.024,-1.08 c -0.13,-0.057 -0.259,-0.114 -0.397,-0.162 -0.357,-0.13 -0.772,-0.187 -1.023,-0.187 -0.739,0 -1.039,0.463 -1.039,0.917 0,1.007 1.347,1.324 2.134,1.518 -0.3,0.877 -0.47,1.08 -1.225,1.08 -0.097,0 -0.195,0 -0.382,-0.017 l 0.739,0.325 C -0.658,2.402 -0.146,2.37 0.106,2.289 0.601,2.126 0.763,1.729 1.039,0.779 Z"
            style="fill:#ffffff;fill-opacity:1;fill-rule:nonzero;stroke:none"
            id="path183" />
        </g>
        <g
          id="g185"
          transform="translate(72.1542,58.5155)">
          <path
            d="M 0,0 H 1.632 C 1.51,-0.171 1.502,-0.195 1.486,-0.219 1.469,-0.26 1.469,-0.301 1.469,-0.625 1.697,-0.341 2.176,0.13 2.914,0.13 c 0.301,0 0.633,-0.106 0.836,-0.269 0.114,-0.096 0.293,-0.308 0.341,-0.535 0.244,0.276 0.69,0.804 1.502,0.804 0.333,0 0.69,-0.114 0.933,-0.341 0.277,-0.252 0.358,-0.512 0.358,-1.267 0,-0.219 -0.033,-1.29 -0.033,-1.533 -0.008,-0.171 0,-0.228 0.016,-0.269 C 6.9,-3.401 6.932,-3.418 7.622,-3.458 L 7.249,-3.678 H 5.358 l 0.121,0.163 c 0.049,0.057 0.09,0.106 0.122,0.187 0.032,0.089 0.041,0.105 0.041,1.85 0,0.585 -0.065,0.763 -0.211,0.894 -0.106,0.088 -0.252,0.145 -0.398,0.145 -0.552,0 -0.869,-0.714 -0.869,-0.739 0,-0.162 0.009,-0.421 0.009,-0.592 0,-0.325 0,-0.665 -0.009,-0.99 0,-0.073 -0.008,-0.374 -0.008,-0.431 0,-0.186 0.065,-0.21 0.268,-0.218 0.073,-0.009 0.43,-0.049 0.511,-0.049 l -0.397,-0.22 h -1.9 l 0.203,0.26 c 0.041,0.066 0.09,0.146 0.098,0.552 0,0.163 -0.008,0.974 -0.008,1.153 0,0.78 -0.017,0.933 -0.171,1.104 -0.089,0.105 -0.227,0.178 -0.398,0.178 -0.308,0 -0.641,-0.243 -0.885,-0.747 -0.008,-0.397 -0.016,-0.9 -0.016,-1.006 0,-0.235 0,-0.78 0.016,-0.99 0.017,-0.147 0.041,-0.178 0.098,-0.211 0.097,-0.041 0.584,-0.041 0.698,-0.057 L 1.892,-3.678 H 0 l 0.179,0.26 c 0.04,0.082 0.048,0.105 0.056,0.203 0,0.163 -0.016,0.99 -0.016,1.177 0,0.26 0.016,1.494 0.025,1.778 -0.341,-0.008 -0.422,-0.016 -0.788,-0.049 z"
            style="fill:#ffffff;fill-opacity:1;fill-rule:nonzero;stroke:none"
            id="path187" />
        </g>
        <g
          id="g189"
          transform="translate(82.4895,56.1452)">
          <path
            d="m 0,0 c -0.097,0.349 -0.122,0.438 -0.154,0.528 -0.033,0.08 -0.073,0.145 -0.179,0.145 -0.43,0 -0.844,-0.463 -0.844,-0.941 0,-0.373 0.292,-0.633 0.698,-0.633 0.26,0 0.487,0.113 0.706,0.227 C 0.138,-0.439 0.106,-0.349 0,0 M 1.21,0.218 C 1.477,-0.625 1.575,-0.853 1.924,-1.364 1.818,-1.397 1.745,-1.421 1.575,-1.421 c -0.147,0 -0.293,0.016 -0.439,0.049 -0.552,0.13 -0.73,0.422 -0.86,0.625 L 0.024,-1.08 c -0.13,-0.057 -0.259,-0.114 -0.397,-0.162 -0.357,-0.13 -0.772,-0.187 -1.023,-0.187 -0.739,0 -1.04,0.463 -1.04,0.917 0,1.007 1.348,1.324 2.135,1.518 -0.3,0.877 -0.47,1.08 -1.225,1.08 -0.097,0 -0.195,0 -0.382,-0.017 l 0.739,0.325 C -0.658,2.402 -0.146,2.37 0.106,2.289 0.601,2.126 0.763,1.729 1.039,0.779 Z"
            style="fill:#ffffff;fill-opacity:1;fill-rule:nonzero;stroke:none"
            id="path191" />
        </g>
        <g
          id="g193"
          transform="translate(87.0569,56.1452)">
          <path
            d="m 0,0 c -0.097,0.349 -0.122,0.438 -0.154,0.528 -0.033,0.08 -0.073,0.145 -0.179,0.145 -0.43,0 -0.844,-0.463 -0.844,-0.941 0,-0.373 0.292,-0.633 0.698,-0.633 0.26,0 0.487,0.113 0.706,0.227 C 0.138,-0.439 0.106,-0.349 0,0 M 1.21,0.218 C 1.477,-0.625 1.575,-0.853 1.924,-1.364 1.818,-1.397 1.745,-1.421 1.575,-1.421 c -0.147,0 -0.293,0.016 -0.439,0.049 -0.552,0.13 -0.73,0.422 -0.86,0.625 L 0.024,-1.08 c -0.13,-0.057 -0.259,-0.114 -0.397,-0.162 -0.357,-0.13 -0.772,-0.187 -1.023,-0.187 -0.739,0 -1.04,0.463 -1.04,0.917 0,1.007 1.348,1.324 2.135,1.518 -0.3,0.877 -0.47,1.08 -1.225,1.08 -0.097,0 -0.195,0 -0.382,-0.017 l 0.739,0.325 C -0.658,2.402 -0.146,2.37 0.106,2.289 0.601,2.126 0.763,1.729 1.039,0.779 Z"
            style="fill:#ffffff;fill-opacity:1;fill-rule:nonzero;stroke:none"
            id="path195" />
        </g>
        <g
          id="g197"
          transform="translate(90.6478,57.9063)">
          <path
            d="m 0,0 c -0.008,-0.357 -0.024,-1.623 -0.024,-1.786 0,-0.527 0.008,-0.998 0.592,-0.998 0.162,0 0.357,0.032 0.463,0.049 0.04,0 0.089,0.008 0.13,0.016 L 0.787,-3.052 c -0.211,-0.049 -0.544,-0.114 -0.909,-0.114 -0.43,0 -0.885,0.114 -1.063,0.488 -0.089,0.186 -0.089,0.381 -0.089,0.722 0,0.641 0.032,1.85 0.048,2.248 L -1.713,0.276 -1.21,0.617 c 0.008,0.065 0.017,0.406 0.017,0.487 0.073,0.033 0.105,0.049 0.414,0.154 0.121,0.041 0.69,0.277 0.819,0.325 L 0.024,0.609 1.307,0.592 0.779,0.276 0.008,0.292 Z"
            style="fill:#ffffff;fill-opacity:1;fill-rule:nonzero;stroke:none"
            id="path199" />
        </g>
        <g
          id="g201"
          transform="translate(96.6307,57.4356)">
          <path
            d="m 0,0 c -0.3,0.788 -0.601,0.869 -0.828,0.869 -0.706,0 -0.706,-0.885 -0.706,-1.08 0,-0.958 0.381,-2.2 1.112,-2.2 0.122,0 0.244,0.041 0.341,0.09 0.341,0.194 0.357,0.682 0.357,0.892 C 0.276,-0.747 0.04,-0.114 0,0 M 0.317,1.072 C 0.763,0.909 1.502,0.406 1.502,-0.69 c 0,-1.331 -1.153,-2.029 -2.192,-2.029 -0.592,0 -1.193,0.154 -1.599,0.576 -0.333,0.349 -0.487,0.828 -0.487,1.307 0,1.152 0.958,2.038 2.248,2.038 0.106,0 0.504,-0.008 0.845,-0.13"
            style="fill:#ffffff;fill-opacity:1;fill-rule:nonzero;stroke:none"
            id="path203" />
        </g>
        <g
          id="g205"
          transform="translate(100.2234,58.1905)">
          <path
            d="m 0,0 c -0.016,-0.357 -0.024,-0.69 -0.024,-1.884 v -0.567 c 0,-0.504 0,-0.552 0.21,-0.576 0.098,-0.017 0.609,-0.057 0.723,-0.066 L 0.552,-3.352 h -2.005 c 0.203,0.357 0.203,0.365 0.203,0.543 0,0.139 -0.016,0.804 -0.016,0.958 0,0.617 0.008,1.234 0.024,1.851 l -0.528,-0.008 0.52,0.333 c 0.032,0.389 0.065,0.738 0.333,1.161 0.568,0.852 1.452,0.876 1.964,0.892 H 1.753 L 1.12,1.876 C 1.006,1.94 0.82,2.054 0.6,2.054 0.122,2.054 0.057,1.631 0.04,1.535 0.008,1.307 0,0.39 0,0.325 H 1.315 L 0.812,0 Z"
            style="fill:#ffffff;fill-opacity:1;fill-rule:nonzero;stroke:none"
            id="path207" />
        </g>
        <g
          id="g209"
          transform="translate(107.3347,54.838)">
          <path
            d="m 0,0 h -2.33 c 0.292,0.373 0.366,0.479 0.366,0.771 v 0.178 c -0.017,0.537 -0.017,0.788 -0.017,1.064 0,0.877 0.017,1.827 0.041,2.712 0.008,0.349 0.008,0.462 0.008,0.69 h -1.007 c -0.503,0 -0.633,-0.082 -0.819,-0.398 L -4.107,4.854 -3.758,5.731 H 1.656 L 1.234,4.96 0.942,4.854 c 0.065,0.138 0.097,0.228 0.097,0.317 0,0.195 -0.17,0.228 -0.292,0.236 C 0.65,5.415 0.455,5.415 0.252,5.415 H -0.584 C -0.609,5.09 -0.609,4.992 -0.617,4.4 -0.625,4.027 -0.625,3.661 -0.633,3.288 -0.641,2.833 -0.641,2.378 -0.641,1.924 c 0,-0.228 0,-1.12 0.024,-1.291 0.033,-0.235 0.138,-0.268 0.292,-0.292 0.114,-0.016 0.674,-0.057 0.804,-0.073 z"
            style="fill:#ffffff;fill-opacity:1;fill-rule:nonzero;stroke:none"
            id="path211" />
        </g>
        <g
          id="g213"
          transform="translate(111.3452,57.4356)">
          <path
            d="m 0,0 c -0.3,0.788 -0.601,0.869 -0.828,0.869 -0.706,0 -0.706,-0.885 -0.706,-1.08 0,-0.958 0.381,-2.2 1.112,-2.2 0.122,0 0.244,0.041 0.341,0.09 0.341,0.194 0.357,0.682 0.357,0.892 C 0.276,-0.747 0.04,-0.114 0,0 M 0.317,1.072 C 0.763,0.909 1.502,0.406 1.502,-0.69 c 0,-1.331 -1.153,-2.029 -2.192,-2.029 -0.592,0 -1.193,0.154 -1.599,0.576 -0.333,0.349 -0.487,0.828 -0.487,1.307 0,1.152 0.958,2.038 2.248,2.038 0.106,0 0.504,-0.008 0.845,-0.13"
            style="fill:#ffffff;fill-opacity:1;fill-rule:nonzero;stroke:none"
            id="path215" />
        </g>
        <g
          id="g217"
          transform="translate(116.2531,57.8255)">
          <path
            d="m 0,0 c -0.081,0.024 -0.138,0.04 -0.26,0.04 -0.495,0 -0.739,-0.243 -0.909,-0.406 -0.016,-0.649 -0.033,-1.298 -0.033,-1.939 0,-0.269 0.009,-0.357 0.22,-0.382 0.105,-0.008 0.601,-0.049 0.714,-0.057 l -0.349,-0.243 h -2.054 c 0.155,0.259 0.187,0.316 0.195,0.429 v 1.227 c 0,0.559 0.008,1.12 0.016,1.688 l -0.828,-0.008 0.569,0.349 h 1.68 C -1.153,0.512 -1.161,0.495 -1.177,0.455 -1.202,0.381 -1.202,0.284 -1.21,0 -1.071,0.163 -0.779,0.512 -0.203,0.698 0.073,0.787 0.349,0.82 0.649,0.804 L 0.227,-0.268 -0.098,-0.423 Z"
            style="fill:#ffffff;fill-opacity:1;fill-rule:nonzero;stroke:none"
            id="path219" />
        </g>
        <g
          id="g221"
          transform="translate(119.6993,57.4356)">
          <path
            d="m 0,0 c -0.3,0.788 -0.601,0.869 -0.828,0.869 -0.706,0 -0.706,-0.885 -0.706,-1.08 0,-0.958 0.381,-2.2 1.112,-2.2 0.122,0 0.244,0.041 0.341,0.09 0.341,0.194 0.357,0.682 0.357,0.892 C 0.276,-0.747 0.04,-0.114 0,0 M 0.317,1.072 C 0.763,0.909 1.502,0.406 1.502,-0.69 c 0,-1.331 -1.153,-2.029 -2.192,-2.029 -0.592,0 -1.193,0.154 -1.599,0.576 -0.333,0.349 -0.487,0.828 -0.487,1.307 0,1.152 0.958,2.038 2.248,2.038 0.106,0 0.504,-0.008 0.845,-0.13"
            style="fill:#ffffff;fill-opacity:1;fill-rule:nonzero;stroke:none"
            id="path223" />
        </g>
        <g
          id="g225"
          transform="translate(126.4433,54.838)">
          <path
            d="m 0,0 h -1.916 c 0.016,0.024 0.203,0.276 0.211,0.284 0.025,0.041 0.041,0.065 0.049,0.122 0.024,0.106 0.024,0.698 0.024,0.836 0.009,0.17 0,0.974 0,1.161 0,0.365 -0.032,0.52 -0.146,0.657 -0.13,0.155 -0.3,0.187 -0.422,0.187 -0.479,0 -0.787,-0.56 -0.885,-0.739 -0.008,-0.34 -0.016,-0.536 -0.016,-1.006 0,-0.171 0,-0.836 0.016,-1.015 0.008,-0.097 0.017,-0.171 0.187,-0.195 0.089,-0.016 0.52,-0.041 0.617,-0.049 L -2.671,0 h -1.883 c 0.081,0.138 0.098,0.155 0.154,0.251 0.073,0.114 0.081,0.155 0.081,0.285 0,0.113 -0.016,0.69 -0.016,0.811 0,0.26 0,0.512 0.008,0.772 0,0.178 0.017,1.079 0.017,1.282 -0.317,0.008 -0.406,0.008 -0.796,-0.016 l 0.552,0.293 h 1.632 C -2.979,3.604 -3.06,3.523 -3.068,3.466 -3.085,3.409 -3.085,3.304 -3.085,3.068 c 0.593,0.649 1.056,0.739 1.413,0.739 0.357,0 0.714,-0.098 0.966,-0.349 0.325,-0.325 0.325,-0.731 0.325,-1.307 0,-0.771 0,-0.844 -0.017,-1.542 0,-0.276 0,-0.309 0.276,-0.341 0.065,0 0.422,-0.025 0.495,-0.033 z"
            style="fill:#ffffff;fill-opacity:1;fill-rule:nonzero;stroke:none"
            id="path227" />
        </g>
        <g
          id="g229"
          transform="translate(128.5365,57.9063)">
          <path
            d="m 0,0 c -0.008,-0.357 -0.024,-1.623 -0.024,-1.786 0,-0.527 0.008,-0.998 0.592,-0.998 0.162,0 0.357,0.032 0.463,0.049 0.04,0 0.089,0.008 0.13,0.016 L 0.787,-3.052 c -0.211,-0.049 -0.544,-0.114 -0.909,-0.114 -0.43,0 -0.885,0.114 -1.063,0.488 -0.089,0.186 -0.089,0.381 -0.089,0.722 0,0.641 0.032,1.85 0.048,2.248 L -1.713,0.276 -1.21,0.617 c 0.008,0.065 0.017,0.406 0.017,0.487 0.073,0.033 0.105,0.049 0.414,0.154 0.121,0.041 0.69,0.277 0.819,0.325 L 0.024,0.609 1.307,0.592 0.779,0.276 0.008,0.292 Z"
            style="fill:#ffffff;fill-opacity:1;fill-rule:nonzero;stroke:none"
            id="path231" />
        </g>
        <g
          id="g233"
          transform="translate(132.4799,57.4356)">
          <path
            d="m 0,0 c -0.3,0.788 -0.601,0.869 -0.828,0.869 -0.706,0 -0.706,-0.885 -0.706,-1.08 0,-0.958 0.381,-2.2 1.112,-2.2 0.122,0 0.244,0.041 0.341,0.09 0.341,0.194 0.357,0.682 0.357,0.892 C 0.276,-0.747 0.04,-0.114 0,0 M 0.317,1.072 C 0.763,0.909 1.502,0.406 1.502,-0.69 c 0,-1.331 -1.153,-2.029 -2.192,-2.029 -0.592,0 -1.193,0.154 -1.599,0.576 -0.333,0.349 -0.487,0.828 -0.487,1.307 0,1.152 0.958,2.038 2.248,2.038 0.106,0 0.504,-0.008 0.845,-0.13"
            style="fill:#ffffff;fill-opacity:1;fill-rule:nonzero;stroke:none"
            id="path235" />
        </g>
        <g
          id="g237"
          transform="translate(109.7996,47.8842)">
          <path
            d="m 0,0 c -0.079,-0.054 -0.216,-0.052 -0.292,-0.119 0.093,-0.071 0.327,-0.243 0.617,-0.457 0.576,0.224 1.263,0.354 2.003,0.354 0.739,0 1.424,-0.13 1.999,-0.352 0.293,0.216 0.529,0.392 0.621,0.464 C 4.81,-0.034 4.592,-0.038 4.575,0.138 4.569,0.195 4.605,0.27 4.629,0.349 4.692,0.554 4.764,0.8 4.821,0.972 4.721,0.962 4.596,0.931 4.465,0.908 4.334,0.886 4.177,0.845 4.083,0.862 4.011,0.875 3.957,0.949 3.928,1.009 3.892,1.083 3.877,1.177 3.846,1.257 3.682,1.104 3.517,0.877 3.354,0.679 3.308,0.623 3.224,0.509 3.126,0.541 3.043,0.568 3.078,0.7 3.098,0.807 3.182,1.242 3.287,1.746 3.363,2.155 3.233,2.106 3.117,1.968 2.989,1.917 2.866,1.868 2.775,1.913 2.716,2.009 2.682,2.063 2.659,2.148 2.624,2.229 2.537,2.437 2.421,2.742 2.342,2.908 2.209,2.61 2.072,2.318 1.95,2.009 1.871,1.933 1.817,1.861 1.686,1.908 1.595,1.94 1.472,2.048 1.394,2.1 1.363,2.121 1.316,2.164 1.303,2.137 1.392,1.615 1.51,1.123 1.586,0.587 1.476,0.461 1.38,0.605 1.312,0.688 1.167,0.864 1.034,1.009 0.902,1.165 0.874,1.198 0.857,1.249 0.811,1.257 0.754,1.113 0.745,0.939 0.62,0.881 0.523,0.836 0.349,0.883 0.2,0.908 0.07,0.93 -0.055,0.958 -0.155,0.972 -0.102,0.791 -0.032,0.532 0.027,0.339 0.053,0.256 0.095,0.19 0.082,0.119 0.074,0.076 0.031,0.022 0,0"
            style="fill:#ffffff;fill-opacity:1;fill-rule:evenodd;stroke:none"
            id="path239" />
        </g>
        <g
          id="g241"
          transform="translate(83.5912,47.8842)">
          <path
            d="m 0,0 c -0.079,-0.054 -0.216,-0.052 -0.292,-0.119 0.093,-0.071 0.327,-0.243 0.617,-0.457 0.576,0.224 1.263,0.354 2.003,0.354 0.739,0 1.424,-0.13 1.999,-0.352 0.293,0.216 0.529,0.392 0.621,0.464 C 4.81,-0.034 4.592,-0.038 4.575,0.138 4.569,0.195 4.605,0.27 4.629,0.349 4.692,0.554 4.764,0.8 4.821,0.972 4.721,0.962 4.596,0.931 4.465,0.908 4.334,0.886 4.177,0.845 4.083,0.862 4.011,0.875 3.957,0.949 3.928,1.009 3.892,1.083 3.877,1.177 3.846,1.257 3.682,1.104 3.517,0.877 3.354,0.679 3.308,0.623 3.224,0.509 3.126,0.541 3.043,0.568 3.078,0.7 3.098,0.807 3.182,1.242 3.287,1.746 3.363,2.155 3.233,2.106 3.117,1.968 2.989,1.917 2.866,1.868 2.775,1.913 2.716,2.009 2.682,2.063 2.659,2.148 2.624,2.229 2.537,2.437 2.421,2.742 2.342,2.908 2.209,2.61 2.072,2.318 1.95,2.009 1.871,1.933 1.817,1.861 1.686,1.908 1.595,1.94 1.472,2.048 1.394,2.1 1.363,2.121 1.316,2.164 1.303,2.137 1.392,1.615 1.51,1.123 1.586,0.587 1.476,0.461 1.38,0.605 1.312,0.688 1.167,0.864 1.034,1.009 0.902,1.165 0.874,1.198 0.857,1.249 0.811,1.257 0.754,1.113 0.745,0.939 0.62,0.881 0.523,0.836 0.349,0.883 0.2,0.908 0.07,0.93 -0.055,0.958 -0.155,0.972 -0.102,0.791 -0.032,0.532 0.027,0.339 0.053,0.256 0.095,0.19 0.082,0.119 0.074,0.076 0.031,0.022 0,0"
            style="fill:#ffffff;fill-opacity:1;fill-rule:evenodd;stroke:none"
            id="path243" />
        </g>
        <g
          id="g245"
          transform="translate(66.8189,49.6551)">
          <path
            d="M 0,0 V -0.793 H 1.05 V -1.205 H 0 v -1.09 H -0.463 V 0.423 H 1.194 V 0 Z"
            style="fill:#ffffff;fill-opacity:1;fill-rule:nonzero;stroke:none"
            id="path247" />
        </g>
        <g
          id="g249"
          transform="translate(70.396,49.2586)">
          <path
            d="m 0,0 -0.386,-0.908 h 0.771 z m 0.801,-1.898 -0.264,0.623 h -1.075 l -0.264,-0.623 h -0.477 l 1.253,2.754 H 0.04 l 1.25,-2.754 z"
            style="fill:#ffffff;fill-opacity:1;fill-rule:nonzero;stroke:none"
            id="path251" />
        </g>
        <path
          d="m 73.185,50.078 h 0.463 V 47.36 h -0.463 z"
          style="fill:#ffffff;fill-opacity:1;fill-rule:nonzero;stroke:none"
          id="path253" />
        <g
          id="g255"
          transform="translate(76.5239,49.6551)">
          <path
            d="M 0,0 V -2.295 H -0.463 V 0 H -1.327 V 0.423 H 0.86 V 0 Z"
            style="fill:#ffffff;fill-opacity:1;fill-rule:nonzero;stroke:none"
            id="path257" />
        </g>
        <g
          id="g259"
          transform="translate(80.6431,47.3602)">
          <path
            d="M 0,0 V 1.168 H -1.25 V 0 H -1.713 V 2.718 H -1.25 V 1.583 H 0 V 2.718 H 0.464 V 0 Z"
            style="fill:#ffffff;fill-opacity:1;fill-rule:nonzero;stroke:none"
            id="path261" />
        </g>
        <g
          id="g263"
          transform="translate(91.5278,49.6697)">
          <path
            d="m 0,0 c -0.104,0 -0.208,-0.007 -0.305,-0.021 v -0.995 c 0.093,-0.006 0.179,-0.014 0.26,-0.014 0.419,0 0.612,0.218 0.612,0.526 C 0.567,-0.237 0.378,0 0,0 m -0.033,-1.435 c -0.09,0 -0.183,0.008 -0.272,0.011 V -2.31 h -0.463 v 2.693 c 0.242,0.029 0.467,0.044 0.69,0.044 0.745,0 1.127,-0.408 1.127,-0.916 0,-0.552 -0.389,-0.946 -1.082,-0.946"
            style="fill:#ffffff;fill-opacity:1;fill-rule:nonzero;stroke:none"
            id="path265" />
        </g>
        <g
          id="g267"
          transform="translate(94.1304,47.3602)">
          <path
            d="M 0,0 V 2.718 H 1.657 V 2.295 H 0.463 V 1.583 H 1.542 V 1.176 H 0.463 V 0.423 H 1.657 V 0 Z"
            style="fill:#ffffff;fill-opacity:1;fill-rule:nonzero;stroke:none"
            id="path269" />
        </g>
        <g
          id="g271"
          transform="translate(98.5278,49.2586)">
          <path
            d="m 0,0 -0.386,-0.908 h 0.771 z m 0.801,-1.898 -0.264,0.623 h -1.075 l -0.264,-0.623 h -0.477 l 1.253,2.754 H 0.04 l 1.25,-2.754 z"
            style="fill:#ffffff;fill-opacity:1;fill-rule:nonzero;stroke:none"
            id="path273" />
        </g>
        <g
          id="g275"
          transform="translate(102.523,47.3152)">
          <path
            d="m 0,0 c -0.86,0 -1.465,0.594 -1.465,1.402 0,0.805 0.611,1.406 1.465,1.406 0.337,0 0.645,-0.108 0.875,-0.249 L 0.715,2.166 C 0.5,2.288 0.233,2.373 -0.008,2.373 c -0.596,0 -0.96,-0.396 -0.96,-0.971 0,-0.571 0.374,-0.967 0.971,-0.967 0.241,0 0.523,0.085 0.742,0.214 L 0.886,0.256 C 0.659,0.111 0.337,0 0,0"
            style="fill:#ffffff;fill-opacity:1;fill-rule:nonzero;stroke:none"
            id="path277" />
        </g>
        <g
          id="g279"
          transform="translate(104.9829,47.3602)">
          <path
            d="M 0,0 V 2.718 H 1.657 V 2.295 H 0.463 V 1.583 H 1.542 V 1.176 H 0.463 V 0.423 H 1.657 V 0 Z"
            style="fill:#ffffff;fill-opacity:1;fill-rule:nonzero;stroke:none"
            id="path281" />
        </g>
        <g
          id="g283"
          transform="translate(117.2944,47.3152)">
          <path
            d="m 0,0 c -0.679,0 -1.079,0.383 -1.079,1.087 v 1.676 h 0.464 V 1.12 c 0,-0.467 0.229,-0.697 0.623,-0.697 0.389,0 0.623,0.233 0.623,0.697 V 2.763 H 1.094 V 1.087 C 1.094,0.394 0.668,0 0,0"
            style="fill:#ffffff;fill-opacity:1;fill-rule:nonzero;stroke:none"
            id="path285" />
        </g>
        <g
          id="g287"
          transform="translate(122.3159,47.3084)">
          <path
            d="M 0,0 -1.702,1.795 V 0.052 h -0.463 v 2.755 l 0.074,0.014 1.68,-1.768 V 2.77 H 0.052 V 0.011 Z"
            style="fill:#ffffff;fill-opacity:1;fill-rule:nonzero;stroke:none"
            id="path289" />
        </g>
        <path
          d="m 124.167,50.078 h 0.463 V 47.36 h -0.463 z"
          style="fill:#ffffff;fill-opacity:1;fill-rule:nonzero;stroke:none"
          id="path291" />
        <g
          id="g293"
          transform="translate(127.5054,49.6551)">
          <path
            d="M 0,0 V -2.295 H -0.463 V 0 H -1.327 V 0.423 H 0.86 V 0 Z"
            style="fill:#ffffff;fill-opacity:1;fill-rule:nonzero;stroke:none"
            id="path295" />
        </g>
        <g
          id="g297"
          transform="translate(131.1987,48.5018)">
          <path
            d="M 0,0 V -1.142 H -0.463 V 0.004 L -1.42,1.576 h 0.53 l 0.667,-1.149 0.66,1.149 h 0.52 z"
            style="fill:#ffffff;fill-opacity:1;fill-rule:nonzero;stroke:none"
            id="path299" />
        </g>
      </g>
    </g>
  </g>
</svg>
